<svg class="diagram-root" style="background: rgb(245, 246, 246); --darkreader-inline-bgimage: initial; --darkreader-inline-bgcolor:#1b1d1e;" xmlns="http://www.w3.org/2000/svg" xmlns:xlink="http://www.w3.org/1999/xlink" data-darkreader-inline-bgimage="" data-darkreader-inline-bgcolor=""><style>.diagram-root { font-family: "Helvetica Neue", sans-serif; font-size: 12px; } .t { overflow: visible; } .t-bg { y: 40; fill: #fff;   } .th { fill: #005aa0;   } .tht { fill: #fff; font-size: 14px;  } .tf { fill: #323c46; overflow: visible; } .tf.pk { fill: #005aa0; font-weight: bold; } .tf.fk { font-weight: bold; } .ty { fill: #adb1b5; font-weight: normal; text-anchor: end; } .r { fill: transparent; stroke: #c3c3c3; stroke-width: 1; } .l { stroke: 1; } .i { fill: #c2c7ce; stroke: #c2c7ce; } .i.ix { fill: #afb3b6; stroke: #000; } .fa { fill: transparent; overflow: visible; } .fa .bg.hover { fill: #f7f7f7; } .c { cy: 12; r: 4; stroke: #d2d2dc; fill: #d2d2dc; } .hr { fill: transparent; stroke: #323c46; stroke-opacity: 0.035; stroke-width: 13; } .dc { stroke: #fa5a3c; fill: #fa5a3c; } .x { stroke: white; stroke-width: 1; } .hl .th { fill: #1b9bff; } .hl .tht {  } .fhl .bg { fill: #e7f4ff; } .fhls .bg {  } .r.hl { stroke: #1b9bff; } .dim { opacity: 0.25; }</style><g class="drawing-wrapper" transform="translate(-73, -219) scale(1,1)"><g class="rs"><path d="M 651 483 m -1, 0 a 1,1 0 1,0 2,0 a 1,1 0 1,0 -2,0 M 651 483 m -0.5, 0 a 0.5,0.5 0 1,0 1,0 a 0.5,0.5 0 1,0 -1,0  M651 483 L651 483 639 483 M 651 489 m -1, 0 a 1,1 0 1,0 2,0 a 1,1 0 1,0 -2,0 M 651 489 m -0.5, 0 a 0.5,0.5 0 1,0 1,0 a 0.5,0.5 0 1,0 -1,0  M651 489 L651 489 644 483 651 477 M 651 477 m -1, 0 a 1,1 0 1,0 2,0 a 1,1 0 1,0 -2,0 M 651 477 m -0.5, 0 a 0.5,0.5 0 1,0 1,0 a 0.5,0.5 0 1,0 -1,0  M639 483 Q 617.04 483, 595.08 437 T 551.16 391 M 539.16 391 m -1, 0 a 1,1 0 1,0 2,0 a 1,1 0 1,0 -2,0 M 539.16 391 m -0.5, 0 a 0.5,0.5 0 1,0 1,0 a 0.5,0.5 0 1,0 -1,0  M539.16 391 L539.16 391 551.16 391 M545.16 397 L545.16 397 545.16 385" id="h2631762099" class="r"></path><path d="M 364 416 m -1, 0 a 1,1 0 1,0 2,0 a 1,1 0 1,0 -2,0 M 364 416 m -0.5, 0 a 0.5,0.5 0 1,0 1,0 a 0.5,0.5 0 1,0 -1,0  M364 416 L364 416 352 416 M 364 422 m -1, 0 a 1,1 0 1,0 2,0 a 1,1 0 1,0 -2,0 M 364 422 m -0.5, 0 a 0.5,0.5 0 1,0 1,0 a 0.5,0.5 0 1,0 -1,0  M364 422 L364 422 357 416 364 410 M 364 410 m -1, 0 a 1,1 0 1,0 2,0 a 1,1 0 1,0 -2,0 M 364 410 m -0.5, 0 a 0.5,0.5 0 1,0 1,0 a 0.5,0.5 0 1,0 -1,0  M352 416 Q 330.54 416, 309.08 361 T 266.15 306 M 254.15 306 m -1, 0 a 1,1 0 1,0 2,0 a 1,1 0 1,0 -2,0 M 254.15 306 m -0.5, 0 a 0.5,0.5 0 1,0 1,0 a 0.5,0.5 0 1,0 -1,0  M254.15 306 L254.15 306 266.15 306 M260.15 312 L260.15 312 260.15 300" id="h2304721871" class="r"></path></g><g class="hrs"></g><g class="ts"><svg width="204.06" height="175" x="651" y="426" id="h1404381977" class="t"><rect height="40" width="204.06" class="th"></rect><text x="13" y="25" class="tht">measurements</text><rect height="135" width="204.06" class="t-bg"></rect><text x="13" y="61" class="tf fk">device_id<tspan x="191.06" class="ty">INTEGER</tspan></text><text x="13" y="86" class="tf">measurement_time<tspan x="191.06" class="ty">timestamp</tspan></text><text x="13" y="111" class="tf">power(W)<tspan x="191.06" class="ty">INTEGER</tspan></text><text x="13" y="136" class="tf">power_factor<tspan x="191.06" class="ty">FLOAT</tspan></text><text x="13" y="161" class="tf">energy(Wh)<tspan x="191.06" class="ty">INTEGER</tspan></text></svg><svg width="175.16" height="200" x="364" y="334" id="h3138184659" class="t"><rect height="40" width="175.16" class="th"></rect><text x="13" y="25" class="tht">device_groups</text><rect height="160" width="175.16" class="t-bg"></rect><text x="13" y="61" class="tf pk">device_id<tspan x="162.16" class="ty">INTEGER</tspan></text><path d="M7,14A2,2 0 0,1 5,12A2,2 0 0,1 7,10A2,2 0 0,1 9,12A2,2 0 0,1 7,14M12.65,10C11.83,7.67 9.61,6 7, 6A6, 6 0 0, 0 1, 12A6, 6 0 0, 0 7, 18C9.61, 18 11.83, 16.33 12.65, 14H17V18H21V14H23V10H12.65Z" class="i pk" transform="translate(88.822109375, 48) scale(0.65)"></path><text x="13" y="86" class="tf fk">site_id<tspan x="162.16" class="ty">INTEGER</tspan></text><text x="13" y="111" class="tf">device_name<tspan x="162.16" class="ty">VARCHAR</tspan></text><text x="13" y="136" class="tf">dg1<tspan x="162.16" class="ty">VARCHAR</tspan></text><text x="13" y="161" class="tf">dg2<tspan x="162.16" class="ty">VARCHAR</tspan></text><text x="13" y="186" class="tf">dg3<tspan x="162.16" class="ty">VARCHAR</tspan></text></svg><svg width="159.15" height="150" x="95" y="249" id="h3923623577" class="t"><rect height="40" width="159.15" class="th"></rect><text x="13" y="25" class="tht">sites</text><rect height="110" width="159.15" class="t-bg"></rect><text x="13" y="61" class="tf pk">site_id<tspan x="146.15" class="ty">INTEGER</tspan></text><path d="M7,14A2,2 0 0,1 5,12A2,2 0 0,1 7,10A2,2 0 0,1 9,12A2,2 0 0,1 7,14M12.65,10C11.83,7.67 9.61,6 7, 6A6, 6 0 0, 0 1, 12A6, 6 0 0, 0 7, 18C9.61, 18 11.83, 16.33 12.65, 14H17V18H21V14H23V10H12.65Z" class="i pk" transform="translate(72.812109375, 48) scale(0.65)"></path><text x="13" y="86" class="tf">site_name<tspan x="146.15" class="ty">VARCHAR</tspan></text><text x="13" y="111" class="tf">latitude<tspan x="146.15" class="ty">FLOAT</tspan></text><text x="13" y="136" class="tf">longitude<tspan x="146.15" class="ty">FLOAT</tspan></text></svg></g></g><text class="qdbd-link" x="10" y="20">www.quickdatabasediagrams.com</text></svg>